# Blender v2.79 (sub 0) OBJ File: 'Peter High Poly.blend'
# www.blender.org
mtllib mouth_5.mtl
o Mesh_0067_Mesh_0067Mesh
v 0.094729 0.245379 0.169964
v -0.061684 0.230921 0.168673
v -0.043737 0.228544 0.224082
v 0.069153 0.131706 0.217202
v -0.034959 0.270401 0.170618
v -0.144233 0.254821 0.147493
v -0.061088 0.235851 0.162245
v 0.157497 0.138395 0.166637
v 0.070478 0.234934 0.193698
v 0.137395 0.254820 0.147493
v -0.087924 0.082545 0.210439
v -0.104340 0.030989 0.232424
v -0.178210 0.044631 0.174727
v -0.164336 0.138395 0.166636
v -0.030996 0.055716 0.263337
v -0.051677 0.048750 0.254109
v 0.024005 0.055716 0.263337
v 0.080933 0.082545 0.210440
v 0.171371 0.044631 0.174727
v -0.003495 0.078492 0.268118
v 0.021953 0.120351 0.290198
v 0.043749 0.100361 0.299428
v 0.056971 0.129662 0.271956
v 0.081852 0.111854 0.266955
v 0.073147 0.063406 0.268479
v -0.049594 0.062476 0.290673
v -0.020766 0.074345 0.292403
v -0.003496 0.133343 0.257437
v -0.021588 0.114236 0.295294
v -0.050740 0.100361 0.299427
v -0.080138 0.063406 0.268478
v -0.088843 0.111854 0.266955
v -0.056886 0.129650 0.271956
v -0.075853 0.131706 0.217202
v -0.003495 0.012283 0.279551
v 0.097163 0.030973 0.232438
v 0.110283 -0.055434 0.227293
v -0.004282 -0.067438 0.268513
v -0.117827 -0.055411 0.227296
v -0.081398 0.063004 0.230238
v 0.090421 0.317794 0.105489
v 0.039907 0.292040 0.206259
v 0.024653 0.296392 0.238255
v -0.003085 0.266493 0.235489
v 0.020333 0.320068 0.219395
v -0.028732 0.272509 0.232303
v -0.003220 0.298358 0.250330
v -0.003480 0.326888 0.221032
v -0.031092 0.296392 0.238255
v -0.046807 0.292041 0.206258
v -0.097259 0.317789 0.105488
v 0.093762 0.250421 0.165630
v 0.072678 0.242018 0.197045
v 0.003674 0.227277 0.230106
v 0.003634 0.231881 0.231564
v 0.008750 0.323102 0.156305
v -0.015189 0.323102 0.156305
v -0.024090 0.320068 0.219395
v -0.003220 0.257879 0.216853
v -0.035164 0.265653 0.201263
v 0.028129 0.270406 0.170619
v 0.028203 0.265658 0.201263
v 0.022292 0.270052 0.233721
v 0.042603 0.062476 0.290674
v 0.013775 0.074345 0.292403
v 0.074407 0.063004 0.230238
v 0.044686 0.048750 0.254110
v -0.044802 0.233007 0.226632
vt 0.059082 -0.748779
vt 0.097656 -0.715088
vt 0.063232 -0.770996
vt 0.741211 -0.316650
vt 0.906250 -0.231934
vt 0.840332 -0.360596
vt 0.610840 -0.287842
vt 0.734619 -0.350342
vt 0.615967 -0.354004
vt 0.462402 -0.280273
vt 0.741211 -0.331055
vt 0.734619 -0.372314
vt 0.629150 -0.437256
vt 0.090332 -0.933594
vt 0.344238 -1.008545
vt 0.384521 -0.989990
vt 0.143311 -0.900146
vt 0.143311 -0.900146
vt 0.143311 -0.900146
vt 0.401855 -0.824219
vt 0.137695 -0.573242
vt 0.064209 -0.776123
vt 0.097656 -1.784668
vt 0.379883 -1.269287
vt 0.369629 -1.625732
vt 0.013916 -1.585205
vt 0.367920 -1.183350
vt 0.420166 -1.261963
vt 0.281494 -0.859619
vt 0.066162 -0.937500
vt 0.709473 -0.195801
vt 0.858887 -0.250732
vt 0.979980 -0.746826
vt 0.638672 -0.400635
vt 0.873047 -0.805176
vt 0.307617 -0.204346
vt 0.429932 -0.189941
vt 0.324951 -0.482910
vt 0.533447 -0.189941
vt 0.620361 -0.189941
vt 0.637939 -0.400635
vt 0.533203 -0.189941
vt 0.429443 -0.189941
vt 0.873047 -0.805420
vt 0.709229 -0.195801
vt 0.620117 -0.189941
vt 0.859375 -0.250732
vt 0.980225 -0.746826
vt 0.860596 -0.663330
vt 0.762939 -0.763916
vt 0.906006 -0.682617
vt 0.825439 -0.481934
vt 0.918945 -0.547852
vt 0.885010 -0.603271
vt 0.885742 -0.520508
vt 0.762695 -0.470215
vt 0.674072 -0.577393
vt 0.557861 -0.492188
vt 0.894043 -0.718262
vt 0.832275 -0.727295
vt 0.733643 -0.664795
vt 0.832275 -0.727295
vt 0.762939 -0.763916
vt 0.906006 -0.682617
vt 0.918945 -0.547852
vt 0.698486 -0.775391
vt 0.690186 -0.655029
vt 0.734619 -0.444824
vt 0.776855 -0.469238
vt 0.885010 -0.603271
vt 0.733643 -0.664795
vt 0.674072 -0.577393
vt 0.557861 -0.492188
vt 0.894043 -0.718262
vt 0.010010 -1.010010
vt 0.010010 -1.010010
vt 0.010010 -1.010010
vt 0.010010 -1.010010
vt 0.087402 -0.679932
vt 0.087402 -0.679932
vt 0.087402 -0.679932
vt 0.087402 -0.679932
vt 0.087402 -0.679932
vt 0.087402 -0.679932
vt 0.087402 -0.679932
vt 0.087402 -0.679932
vt 0.116699 -0.898438
vt 0.116699 -0.898438
vt 0.116699 -0.898438
vt 0.116699 -0.898438
vt 0.116699 -0.898438
vt 0.116699 -0.898438
vt 0.090332 -0.658691
vt 0.089844 -0.660156
vt 0.089355 -0.661377
vt 0.089355 -0.661377
vt 0.089844 -0.660156
vt 0.089355 -0.661377
vt 0.089844 -0.661865
vt 0.090088 -0.662109
vt 0.090332 -0.658691
vt 0.089355 -0.661377
vt 0.089355 -0.661377
vt 0.089844 -0.661865
vt 0.089355 -0.661377
vt 0.089844 -0.660156
vt 0.089844 -0.660156
vt 0.089355 -0.661377
vt 0.090332 -0.658691
vt 0.281250 -0.206299
vt 0.281250 -0.206299
vt 0.281250 -0.206299
vt 0.281250 -0.206299
vt 0.281250 -0.206299
vt 0.281250 -0.206299
vt 0.281250 -0.206299
vt 0.281250 -0.206299
vt 0.281250 -0.206299
vt 0.250977 -0.064453
vt 0.250977 -0.064453
vt 0.310059 -0.011230
vt 0.310059 -0.011230
vt 0.250977 -0.064453
vt 0.010010 -0.989990
vt 0.010010 -0.989990
vt 0.010010 -0.989990
vt 0.010010 -0.989990
vt 0.010010 -0.989990
vt 0.010010 -0.989990
vt 0.010010 -0.989990
vt 0.010010 -0.989990
vt 0.010010 -0.989990
vt 0.010010 -0.989990
vt 0.116699 -0.898438
vt 0.116699 -0.898438
vt 0.116699 -0.898438
vt 0.116699 -0.898438
vt 0.116699 -0.898438
vt 0.116699 -0.898438
vt 0.116699 -0.898438
vt 0.116699 -0.898438
vt 0.116699 -0.898438
vt 0.877686 -0.520508
vt 0.852539 -0.198730
vt 0.813965 -0.511719
vt 0.776855 -0.198730
vt 0.693604 -0.462158
vt 0.703613 -0.198730
vt 0.556152 -0.431396
vt 0.628906 -0.198730
vt 0.553955 -0.470215
vt 0.575439 -0.198730
vn 0.3354 0.4508 0.8272
vn 0.4198 0.4613 0.7816
vn 0.4488 0.1677 0.8777
vn 0.6401 -0.1233 0.7583
vn 0.2048 -0.0163 0.9786
vn 0.0171 0.6312 0.7754
vn -0.6770 -0.1217 0.7258
vn -0.6745 0.4295 0.6005
vn -0.6039 0.5260 0.5988
vn 0.6571 0.3901 0.6450
vn -0.3077 0.4663 0.8294
vn -0.4528 0.6259 0.6349
vn -0.8925 0.3478 0.2870
vn -0.1060 0.3930 0.9134
vn 0.2927 0.6743 0.6779
vn 0.7626 0.5661 0.3131
vn 0.3323 0.5785 0.7449
vn -0.7830 0.1780 0.5960
vn -0.3880 0.2215 0.8946
vn -0.5134 0.2160 0.8305
vn -0.5018 0.1943 0.8428
vn 0.0300 -0.2365 0.9712
vn -0.1269 -0.4659 0.8757
vn 0.0009 0.0114 0.9999
vn -0.3912 -0.3369 0.8564
vn -0.8560 0.0216 0.5164
vn 0.5135 0.2140 0.8310
vn 0.3916 -0.3374 0.8560
vn 0.1269 -0.4659 0.8757
vn 0.5008 0.1930 0.8437
vn 0.7833 0.1758 0.5962
vn 0.8566 0.0204 0.5156
vn -0.5390 -0.3707 0.7563
vn -0.3093 0.5534 0.7733
vn 0.2362 0.1455 0.9607
vn 0.3256 0.8399 0.4342
vn 0.8705 0.3060 0.3853
vn 0.1664 -0.6851 0.7092
vn 0.7080 -0.5765 0.4078
vn -0.1664 -0.6851 0.7092
vn 0.5043 -0.4388 0.7437
vn 0.3995 0.4269 0.8112
vn -0.7080 -0.5765 0.4078
vn -0.2521 0.8669 0.4300
vn -0.2866 0.1611 0.9444
vn -0.8522 0.3454 0.3930
vn -0.4747 -0.0103 0.8801
vn 0.4739 -0.0139 0.8804
vn -0.0034 -0.1371 0.9905
vn 0.5465 0.8180 0.1794
vn 0.9941 0.0996 0.0421
vn 0.5591 0.7655 0.3184
vn 0.6345 0.1799 0.7516
vn 0.5164 -0.5603 0.6475
vn -0.0365 -0.6844 0.7281
vn -0.0149 0.9254 0.3787
vn 0.0002 0.1780 0.9840
vn -0.6439 0.1752 0.7447
vn -0.5424 -0.5510 0.6341
vn -0.9914 0.1165 0.0600
vn -0.5451 0.7771 0.3145
vn -0.5441 0.8186 0.1837
vn 0.6772 0.1788 0.7136
vn 0.1715 0.0878 0.9812
vn -0.6306 0.0393 0.7751
vn 0.0132 -0.2741 0.9616
vn -0.9370 -0.0068 0.3492
vn 0.8708 0.0763 0.4856
usemtl Tex_0279_0_dds
s 1
f 10/1/1 1/2/2 8/3/3
f 9/4/4 54/5/5 28/6/6
f 54/5/5 3/7/7 28/8/6
f 3/7/7 34/9/8 28/8/6
f 2/10/9 34/9/8 3/7/7
f 9/11/4 28/12/6 4/13/10
f 51/14/11 7/15/12 5/16/13
f 7/17/12 6/18/14 2/19/9
f 7/20/12 51/21/11 6/22/14
f 8/23/3 1/24/2 4/25/10
f 10/26/1 52/27/15 1/24/2
f 52/27/15 9/28/4 1/24/2
f 1/24/2 9/28/4 4/25/10
f 61/29/16 52/27/15 41/30/17
f 52/27/15 10/26/1 41/30/17
f 11/31/18 34/32/8 14/33/19
f 12/34/20 11/31/18 13/35/21
f 11/31/18 14/33/19 13/35/21
f 20/36/22 15/37/23 35/38/24
f 15/37/23 16/39/25 35/38/24
f 35/38/24 16/39/25 12/34/20
f 16/39/25 40/40/26 12/34/20
f 12/34/20 40/40/26 11/31/18
f 36/41/27 67/42/28 35/38/24
f 67/42/28 17/43/29 35/38/24
f 35/38/24 17/43/29 20/36/22
f 19/44/30 18/45/31 36/41/27
f 18/45/31 66/46/32 36/41/27
f 36/41/27 66/46/32 67/42/28
f 4/47/10 18/45/31 8/48/3
f 18/45/31 19/44/30 8/48/3
f 20/49/22 17/50/29 65/51/33
f 28/52/6 20/49/22 21/53/34
f 20/49/22 65/51/33 21/53/34
f 21/53/34 65/51/33 22/54/35
f 28/52/6 21/55/34 23/56/36
f 21/55/34 22/54/35 23/56/36
f 23/56/36 22/54/35 24/57/37
f 28/52/6 23/56/36 4/58/10
f 23/56/36 24/57/37 4/58/10
f 65/59/33 64/60/38 22/54/35
f 64/60/38 25/61/39 22/54/35
f 22/54/35 25/61/39 24/57/37
f 26/62/40 15/63/23 27/64/41
f 15/63/23 20/49/22 27/64/41
f 27/64/41 20/49/22 29/65/42
f 20/49/22 28/52/6 29/65/42
f 16/66/25 15/63/23 31/67/43
f 15/63/23 26/62/40 31/67/43
f 28/68/6 33/69/44 29/65/42
f 33/69/44 30/70/45 29/65/42
f 29/65/42 30/70/45 27/64/41
f 31/71/43 30/70/45 32/72/46
f 30/70/45 33/69/44 32/72/46
f 32/72/46 33/69/44 34/73/8
f 33/69/44 28/68/6 34/73/8
f 27/74/41 30/70/45 26/62/40
f 30/70/45 31/71/43 26/62/40
f 34/75/8 2/76/9 14/77/19
f 2/76/9 6/78/14 14/77/19
f 35/79/24 12/80/20 39/81/47
f 12/80/20 13/82/21 39/81/47
f 19/83/30 36/84/27 37/85/48
f 36/84/27 35/79/24 37/85/48
f 37/85/48 35/79/24 38/86/49
f 35/79/24 39/81/47 38/86/49
f 34/87/8 11/88/18 32/89/46
f 11/88/18 31/90/43 32/89/46
f 11/88/18 40/91/26 31/90/43
f 40/91/26 16/92/25 31/90/43
f 41/93/17 56/94/50 61/95/16
f 56/94/50 42/96/51 61/95/16
f 56/94/50 45/97/52 42/96/51
f 45/97/52 43/98/53 42/96/51
f 42/96/51 43/98/53 63/99/54
f 43/98/53 44/100/55 63/99/54
f 45/97/52 48/101/56 43/98/53
f 48/101/56 47/102/57 43/98/53
f 43/98/53 47/102/57 44/100/55
f 47/102/57 49/103/58 44/100/55
f 44/100/55 49/103/58 46/104/59
f 49/103/58 50/105/60 46/104/59
f 47/102/57 48/101/56 49/103/58
f 48/101/56 58/106/61 49/103/58
f 49/103/58 58/106/61 50/105/60
f 58/106/61 57/107/62 50/105/60
f 50/105/60 57/107/62 5/108/13
f 57/107/62 51/109/11 5/108/13
f 52/110/15 53/111/63 9/112/4
f 53/111/63 54/113/5 9/112/4
f 53/111/63 55/114/64 54/113/5
f 55/114/64 68/115/65 54/113/5
f 54/113/5 68/115/65 3/116/7
f 68/115/65 7/117/12 3/116/7
f 3/116/7 7/117/12 2/118/9
f 45/119/52 56/120/50 48/121/56
f 56/120/50 57/122/62 48/121/56
f 48/121/56 57/122/62 58/123/61
f 59/124/66 46/125/59 60/126/67
f 46/125/59 50/127/60 60/126/67
f 60/126/67 50/127/60 5/128/13
f 61/129/16 42/130/51 62/131/68
f 42/130/51 63/132/54 62/131/68
f 62/131/68 63/132/54 59/124/66
f 63/132/54 44/133/55 59/124/66
f 59/124/66 44/133/55 46/125/59
f 67/134/28 25/135/39 17/136/29
f 25/135/39 64/137/38 17/136/29
f 17/136/29 64/137/38 65/138/33
f 4/139/10 24/140/37 18/141/31
f 24/140/37 25/135/39 18/141/31
f 18/141/31 25/135/39 66/142/32
f 25/135/39 67/134/28 66/142/32
f 52/143/15 61/144/16 53/145/63
f 61/144/16 62/146/68 53/145/63
f 53/145/63 62/146/68 55/147/64
f 62/146/68 59/148/66 55/147/64
f 55/147/64 59/148/66 68/149/65
f 59/148/66 60/150/67 68/149/65
f 68/149/65 60/150/67 7/151/12
f 60/150/67 5/152/13 7/151/12
o Mesh_0068_Mesh_0068Mesh
v 0.144438 0.264287 0.164865
v 0.083921 0.232344 0.209623
v 0.007975 0.226935 0.250658
v -0.003135 0.146600 0.273720
v -0.103720 0.327582 0.122905
v -0.146459 0.263075 0.166674
v 0.082952 0.139899 0.230747
v 0.166922 0.141916 0.185070
v 0.103545 0.255067 0.186378
v 0.044143 0.282293 0.177193
v 0.097400 0.329943 0.121131
v -0.003793 0.346320 0.228986
v -0.035537 0.336388 0.226000
v -0.074366 0.241968 0.181248
v -0.057955 0.225988 0.239324
v -0.070597 0.248995 0.175579
v -0.058045 0.233833 0.242909
v 0.048710 0.103417 0.319603
v 0.002456 0.066560 0.308285
v -0.002865 0.073525 0.288512
v 0.063809 0.147301 0.281074
v 0.015458 0.131972 0.306439
v 0.046098 0.048089 0.305566
v -0.013197 0.123201 0.312329
v -0.059893 0.041675 0.272094
v -0.053089 0.048089 0.305566
v -0.010176 0.065130 0.308021
v -0.062180 0.147854 0.280987
v -0.056759 0.103745 0.319260
v -0.106739 0.119108 0.275207
v -0.067625 0.294488 0.207519
v -0.026615 0.340294 0.160163
v -0.053702 0.277707 0.176646
v 0.020228 0.340279 0.160072
v 0.032075 0.336143 0.226083
v -0.044614 0.300072 0.253895
v -0.040122 0.260936 0.245619
v 0.037977 0.300171 0.254040
v -0.003214 0.302096 0.270995
v 0.100134 0.118281 0.275046
v 0.088015 0.051299 0.277044
v 0.092395 0.063433 0.241065
v 0.120235 -0.055727 0.245783
v -0.003477 0.012523 0.300549
v -0.004355 -0.070317 0.289314
v -0.127796 -0.055627 0.245778
v -0.115120 0.035525 0.249865
v -0.054841 0.265511 0.208596
v 0.007236 0.233724 0.252170
v -0.002941 0.252123 0.237047
v 0.099910 0.264581 0.179867
v 0.086901 0.245773 0.212032
v 0.060784 0.294133 0.207142
v 0.033137 0.258284 0.247319
v 0.046490 0.267261 0.211462
v -0.003853 0.252119 0.250780
v 0.052909 0.041664 0.272087
v 0.026670 0.045932 0.281727
v 0.097383 0.086237 0.222960
v 0.181888 0.048684 0.192446
v 0.107946 0.035467 0.249889
v -0.033661 0.045932 0.281726
v -0.099375 0.063459 0.241083
v -0.188749 0.048712 0.192426
v -0.104368 0.086282 0.222955
v -0.172484 0.143047 0.185424
v -0.090017 0.140725 0.229812
v -0.095005 0.051299 0.277044
vt 0.063232 -0.770996
vt 0.097656 -0.715088
vt 0.059082 -0.748779
vt 0.840332 -0.360596
vt 0.906250 -0.231934
vt 0.741211 -0.316650
vt 0.629150 -0.437256
vt 0.734619 -0.360596
vt 0.610840 -0.287842
vt 0.615967 -0.354004
vt 0.462402 -0.280273
vt 0.384521 -0.989990
vt 0.344238 -1.008545
vt 0.090332 -0.933594
vt 0.143311 -0.900146
vt 0.143311 -0.900146
vt 0.143311 -0.900146
vt 0.064209 -0.776123
vt 0.137695 -0.573242
vt 0.401855 -0.824219
vt 0.369629 -1.625732
vt 0.379883 -1.269287
vt 0.097656 -1.770996
vt 0.367920 -1.183350
vt 0.420166 -1.261963
vt 0.281494 -0.859619
vt 0.066162 -0.937500
vt 0.013916 -1.585205
vt 0.310059 -0.011230
vt 0.250977 -0.064453
vt 0.310059 -0.011230
vt 0.250977 -0.064453
vt 0.250977 -0.064453
vt 0.281250 -0.206299
vt 0.281250 -0.206299
vt 0.281250 -0.206299
vt 0.281250 -0.206299
vt 0.281250 -0.206299
vt 0.281250 -0.206299
vt 0.281250 -0.206299
vt 0.281250 -0.206299
vt 0.281250 -0.206299
vt 0.906006 -0.682617
vt 0.762939 -0.763916
vt 0.860596 -0.663330
vt 0.885010 -0.603271
vt 0.918945 -0.547852
vt 0.840332 -0.481934
vt 0.918945 -0.547852
vt 0.762695 -0.470215
vt 0.885742 -0.520508
vt 0.733643 -0.664795
vt 0.674072 -0.577393
vt 0.557861 -0.492188
vt 0.906006 -0.718262
vt 0.832275 -0.727295
vt 0.762939 -0.763916
vt 0.906006 -0.682617
vt 0.698486 -0.775391
vt 0.690186 -0.664795
vt 0.832275 -0.727295
vt 0.885010 -0.603271
vt 0.776855 -0.469238
vt 0.734619 -0.444824
vt 0.557861 -0.492188
vt 0.674072 -0.577393
vt 0.906006 -0.718262
vt 0.733643 -0.664795
vt 0.010010 -1.010010
vt 0.010010 -1.010010
vt 0.010010 -1.010010
vt 0.010010 -1.010010
vt 0.089355 -0.661377
vt 0.089844 -0.661865
vt 0.089355 -0.661377
vt 0.090332 -0.658691
vt 0.089844 -0.660156
vt 0.089844 -0.660156
vt 0.089355 -0.661377
vt 0.090332 -0.658691
vt 0.090332 -0.658691
vt 0.089355 -0.661377
vt 0.089844 -0.660156
vt 0.089355 -0.661377
vt 0.089844 -0.660156
vt 0.089355 -0.661377
vt 0.089355 -0.661377
vt 0.090088 -0.662109
vt 0.089844 -0.661865
vt 0.116699 -0.898438
vt 0.116699 -0.898438
vt 0.116699 -0.898438
vt 0.116699 -0.898438
vt 0.116699 -0.898438
vt 0.116699 -0.898438
vt 0.116699 -0.898438
vt 0.116699 -0.898438
vt 0.116699 -0.898438
vt 0.087402 -0.679932
vt 0.087402 -0.679932
vt 0.087402 -0.679932
vt 0.087402 -0.679932
vt 0.087402 -0.679932
vt 0.087402 -0.679932
vt 0.087402 -0.679932
vt 0.087402 -0.679932
vt 0.556152 -0.431396
vt 0.553955 -0.470215
vt 0.628906 -0.198730
vt 0.575439 -0.198730
vt 0.693604 -0.462158
vt 0.703613 -0.198730
vt 0.813965 -0.511719
vt 0.776855 -0.198730
vt 0.877686 -0.520508
vt 0.852539 -0.198730
vt 0.010010 -0.989990
vt 0.010010 -0.989990
vt 0.010010 -0.989990
vt 0.010010 -0.989990
vt 0.010010 -0.989990
vt 0.010010 -0.989990
vt 0.010010 -0.989990
vt 0.010010 -0.989990
vt 0.010010 -0.989990
vt 0.010010 -0.989990
vt 0.709229 -0.195801
vt 0.637939 -0.400635
vt 0.620117 -0.189941
vt 0.533203 -0.189941
vt 0.324951 -0.482910
vt 0.429443 -0.189941
vt 0.307617 -0.204346
vt 0.429932 -0.189941
vt 0.859375 -0.250732
vt 0.980225 -0.746826
vt 0.873047 -0.805420
vt 0.533447 -0.189941
vt 0.638672 -0.400635
vt 0.620361 -0.189941
vt 0.709473 -0.195801
vt 0.873047 -0.805176
vt 0.979980 -0.746826
vt 0.858887 -0.250732
vt 0.116699 -0.898438
vt 0.116699 -0.898438
vt 0.116699 -0.898438
vt 0.116699 -0.898438
vt 0.116699 -0.898438
vt 0.116699 -0.898438
vn -0.4357 -0.1611 -0.8855
vn -0.3433 -0.4592 -0.8193
vn -0.3404 -0.4487 -0.8263
vn -0.0141 -0.6514 -0.7586
vn -0.1964 -0.0241 -0.9802
vn -0.6373 -0.0153 -0.7704
vn -0.6618 -0.4277 -0.6156
vn 0.7038 -0.0270 -0.7098
vn 0.6750 -0.4569 -0.5792
vn 0.4666 -0.5559 -0.6879
vn 0.9019 -0.3088 -0.3018
vn 0.5023 -0.5689 -0.6511
vn 0.2851 -0.4671 -0.8369
vn 0.0709 -0.3786 -0.9228
vn -0.2663 -0.6593 -0.7031
vn -0.7848 -0.5431 -0.2983
vn -0.3059 -0.5746 -0.7591
vn 0.0110 -0.9188 -0.3946
vn 0.5514 -0.7670 -0.3282
vn 0.5158 -0.8413 -0.1614
vn -0.5643 -0.7578 -0.3275
vn -0.5154 -0.8413 -0.1632
vn 0.6175 -0.1486 -0.7724
vn -0.7168 -0.2151 -0.6632
vn -0.1332 -0.2084 -0.9689
vn 0.6824 0.3942 -0.6155
vn -0.1390 0.4584 -0.8778
vn -0.0053 0.3459 -0.9382
vn -0.2419 -0.1342 -0.9610
vn 0.3784 -0.5214 -0.7648
vn -0.4958 -0.3978 -0.7720
vn -0.3073 -0.8797 -0.3629
vn -0.6926 0.6606 -0.2896
vn -0.8865 -0.2973 -0.3546
vn -0.1465 0.7392 -0.6573
vn 0.1394 0.4650 -0.8742
vn -0.6289 0.4749 -0.6156
vn 0.3547 0.3334 -0.8735
vn 0.6939 0.6600 -0.2879
vn 0.1492 0.7383 -0.6577
vn 0.2861 -0.1516 -0.9461
vn 0.2324 -0.9025 -0.3626
vn 0.8695 -0.3331 -0.3647
vn 0.3762 -0.2168 -0.9008
vn 0.6400 -0.1755 -0.7480
vn 0.5174 0.6573 -0.5479
vn 0.9948 -0.1011 -0.0101
vn -0.9985 -0.0413 0.0359
vn -0.6323 -0.1767 -0.7542
vn -0.0015 -0.1787 -0.9839
vn 0.0361 0.8104 -0.5848
vn -0.4951 0.6859 -0.5333
vn -0.7822 -0.1796 -0.5966
vn -0.8268 -0.1387 -0.5451
vn -0.3551 0.3337 -0.8732
vn -0.4919 -0.2004 -0.8473
vn -0.4652 0.0108 -0.8851
vn -0.4856 -0.2452 -0.8390
vn -0.0007 -0.0381 -0.9993
vn 0.0035 0.1343 -0.9909
vn 0.4659 0.0072 -0.8848
vn 0.4855 -0.2470 -0.8386
vn 0.4935 -0.2021 -0.8459
vn 0.9575 -0.0161 -0.2880
vn 0.0434 0.4026 -0.9143
vn -0.8675 -0.1508 -0.4740
vn 0.8263 -0.1396 -0.5456
vn 0.7817 -0.1832 -0.5961
usemtl Tex_0280_0_dds
s 1
f 76/153/69 77/154/70 69/155/71
f 72/156/72 71/157/73 70/158/74
f 75/159/75 72/160/72 70/158/74
f 71/157/73 72/160/72 83/161/76
f 72/160/72 135/162/77 83/161/76
f 83/161/76 135/162/77 82/163/78
f 101/164/79 84/165/80 73/166/81
f 82/167/78 74/168/82 84/169/80
f 74/170/82 73/171/81 84/172/80
f 75/173/75 77/174/70 76/175/69
f 119/176/83 77/174/70 70/177/74
f 77/174/70 75/173/75 70/177/74
f 78/178/84 79/179/85 119/176/83
f 79/179/85 69/180/71 119/176/83
f 119/176/83 69/180/71 77/174/70
f 80/181/86 81/182/87 100/183/88
f 103/184/89 80/181/86 102/185/90
f 80/181/86 100/183/88 102/185/90
f 82/186/78 84/187/80 83/188/76
f 71/189/73 83/188/76 85/190/91
f 83/188/76 84/187/80 85/190/91
f 119/191/83 70/192/74 120/193/92
f 70/192/74 71/189/73 120/193/92
f 120/193/92 71/189/73 117/194/93
f 71/189/73 85/190/91 117/194/93
f 87/195/94 126/196/95 88/197/96
f 86/198/97 87/195/94 90/199/98
f 87/195/94 88/197/96 90/199/98
f 90/199/98 88/197/96 72/200/72
f 88/197/96 92/201/99 72/200/72
f 72/200/72 89/202/100 90/203/98
f 89/202/100 86/198/97 90/203/98
f 109/204/101 86/198/97 108/205/102
f 86/198/97 89/202/100 108/205/102
f 108/205/102 89/202/100 75/206/75
f 89/202/100 72/200/72 75/206/75
f 87/207/94 86/198/97 91/208/103
f 86/198/97 109/204/101 91/208/103
f 130/209/104 95/210/105 88/197/96
f 95/210/105 92/201/99 88/197/96
f 93/211/106 136/212/107 130/209/104
f 136/212/107 94/213/108 130/209/104
f 130/209/104 94/213/108 95/210/105
f 95/210/105 97/214/109 92/201/99
f 97/214/109 96/215/110 92/201/99
f 92/201/99 96/215/110 72/216/72
f 96/215/110 135/217/77 72/216/72
f 135/217/77 96/215/110 98/218/111
f 96/215/110 97/214/109 98/218/111
f 95/219/105 94/213/108 97/214/109
f 94/213/108 136/220/107 97/214/109
f 97/214/109 136/220/107 98/218/111
f 135/221/77 134/222/112 82/223/78
f 134/222/112 74/224/82 82/223/78
f 104/225/113 105/226/114 99/227/115
f 80/228/86 104/225/113 81/229/87
f 104/225/113 99/227/115 81/229/87
f 81/229/87 99/227/115 100/230/88
f 99/227/115 101/231/79 100/230/88
f 100/230/88 101/231/79 73/232/81
f 79/233/85 78/234/84 102/235/90
f 78/234/84 121/236/116 102/235/90
f 102/235/90 121/236/116 103/237/89
f 121/236/116 106/238/117 103/237/89
f 103/237/89 106/238/117 80/228/86
f 106/238/117 107/239/118 80/228/86
f 80/228/86 107/239/118 104/225/113
f 107/239/118 124/240/119 104/225/113
f 104/225/113 124/240/119 105/226/114
f 121/236/116 122/241/120 106/238/117
f 122/241/120 124/240/119 106/238/117
f 106/238/117 124/240/119 107/239/118
f 75/242/75 127/243/121 108/244/102
f 127/243/121 109/245/101 108/244/102
f 127/243/121 110/246/122 109/245/101
f 110/246/122 125/247/123 109/245/101
f 109/245/101 125/247/123 126/248/95
f 109/245/101 126/248/95 91/249/103
f 126/248/95 87/250/94 91/249/103
f 128/251/124 111/252/125 129/253/126
f 111/252/125 112/254/127 129/253/126
f 111/252/125 113/255/128 112/254/127
f 113/255/128 114/256/129 112/254/127
f 112/254/127 114/256/129 115/257/130
f 114/256/129 132/258/131 115/257/130
f 85/259/91 84/260/80 116/261/132
f 84/260/80 101/262/79 116/261/132
f 117/263/93 85/259/91 118/264/133
f 85/259/91 116/261/132 118/264/133
f 120/265/92 117/263/93 123/266/134
f 117/263/93 118/264/133 123/266/134
f 119/267/83 120/265/92 78/268/84
f 120/265/92 123/266/134 78/268/84
f 78/269/84 123/270/134 121/271/116
f 123/270/134 122/272/120 121/271/116
f 123/270/134 118/273/133 122/272/120
f 118/273/133 124/274/119 122/272/120
f 124/274/119 118/273/133 105/275/114
f 118/273/133 116/276/132 105/275/114
f 105/275/114 116/276/132 99/277/115
f 116/276/132 101/278/79 99/277/115
f 127/279/121 129/280/126 110/281/122
f 129/280/126 125/282/123 110/281/122
f 129/280/126 112/283/127 125/282/123
f 112/283/127 126/284/95 125/282/123
f 126/284/95 112/283/127 88/285/96
f 112/283/127 130/286/104 88/285/96
f 75/287/75 76/288/69 127/279/121
f 76/288/69 128/289/124 127/279/121
f 127/279/121 128/289/124 129/280/126
f 130/286/104 112/283/127 93/290/106
f 112/283/127 115/291/130 93/290/106
f 93/290/106 115/291/130 131/292/135
f 115/291/130 133/293/136 131/292/135
f 115/291/130 132/294/131 133/293/136
f 132/294/131 134/295/112 133/293/136
f 133/293/136 134/295/112 135/296/77
f 135/297/77 98/298/111 133/299/136
f 98/298/111 136/300/107 133/299/136
f 133/299/136 136/300/107 131/301/135
f 136/300/107 93/302/106 131/301/135
